<svg width="13" height="15" viewBox="0 0 13 15" fill="none" xmlns="http://www.w3.org/2000/svg">
<path id="Vector" d="M0.268795 1.29471C0.299672 0.940163 0.462766 0.610197 0.725687 0.370345C0.988608 0.130492 1.33212 -0.00170205 1.68801 1.6549e-05C2.02556 1.6549e-05 2.3376 0.117034 2.58289 0.312813C2.84545 0.110073 3.1678 7.26718e-05 3.49953 1.6549e-05C3.84458 1.6549e-05 4.16262 0.116284 4.41616 0.312813C4.67003 0.109491 4.9858 -0.000883425 5.31105 1.6549e-05C6.04315 1.6549e-05 6.6665 0.552849 6.73026 1.29471C6.79327 2.02607 6.87503 3.15724 6.87503 4.12563C6.8751 4.7073 6.72486 5.27912 6.43888 5.78563C6.1529 6.29214 5.74088 6.71616 5.24279 7.01656C5.07626 7.11708 5.03275 7.24159 5.03726 7.3061C5.13252 8.75682 5.37481 12.5209 5.37481 13.1247C5.37481 13.6221 5.17723 14.0991 4.82555 14.4507C4.47387 14.8024 3.99688 15 3.49953 15C3.00217 15 2.52519 14.8024 2.1735 14.4507C1.82182 14.0991 1.62425 13.6221 1.62425 13.1247C1.62425 12.5209 1.86653 8.75682 1.9618 7.3061C1.96555 7.24084 1.92279 7.11708 1.75627 7.01656C1.25817 6.71616 0.846153 6.29214 0.560172 5.78563C0.274191 5.27912 0.123951 4.7073 0.124023 4.12563C0.124023 3.15799 0.205786 2.02607 0.268795 1.29471ZM4.99975 3.9381C4.99975 4.08731 4.94048 4.2304 4.83497 4.33591C4.72947 4.44141 4.58637 4.50069 4.43717 4.50069C4.28796 4.50069 4.14486 4.44141 4.03936 4.33591C3.93385 4.2304 3.87458 4.08731 3.87458 3.9381V1.50024C3.87458 1.40077 3.83507 1.30537 3.76473 1.23504C3.69439 1.1647 3.599 1.12518 3.49953 1.12518C3.40006 1.12518 3.30466 1.1647 3.23432 1.23504C3.16399 1.30537 3.12447 1.40077 3.12447 1.50024V3.9381C3.12447 4.08731 3.0652 4.2304 2.95969 4.33591C2.85419 4.44141 2.71109 4.50069 2.56189 4.50069C2.41268 4.50069 2.26958 4.44141 2.16408 4.33591C2.05857 4.2304 1.9993 4.08731 1.9993 3.9381V1.43648C1.9993 1.35392 1.96651 1.27474 1.90813 1.21636C1.84975 1.15798 1.77057 1.12518 1.68801 1.12518C1.61388 1.12389 1.54198 1.15059 1.48665 1.19994C1.43132 1.24929 1.39662 1.31768 1.38946 1.39147C1.3272 2.11533 1.24919 3.20674 1.24919 4.12563C1.24919 4.94325 1.68426 5.65886 2.33835 6.05342C2.74716 6.30095 3.12372 6.77352 3.08471 7.37961C2.9872 8.86484 2.74941 12.5689 2.74941 13.1255C2.74941 13.3244 2.82844 13.5152 2.96912 13.6559C3.10979 13.7966 3.30058 13.8756 3.49953 13.8756C3.69847 13.8756 3.88926 13.7966 4.02994 13.6559C4.17061 13.5152 4.24964 13.3244 4.24964 13.1255C4.24964 12.5689 4.01185 8.86484 3.91434 7.37961C3.87533 6.77352 4.25189 6.30095 4.6607 6.05342C4.99302 5.85323 5.26794 5.57053 5.45878 5.23275C5.64962 4.89497 5.74989 4.51359 5.74986 4.12563C5.74986 3.20749 5.67185 2.11533 5.60959 1.39147C5.60243 1.31768 5.56773 1.24929 5.5124 1.19994C5.45707 1.15059 5.38518 1.12389 5.31105 1.12518C5.22849 1.12518 5.14931 1.15798 5.09093 1.21636C5.03255 1.27474 4.99975 1.35392 4.99975 1.43648V3.9381ZM7.62514 4.31316C7.62514 3.16924 8.07956 2.07218 8.88843 1.26331C9.6973 0.454435 10.7944 1.6549e-05 11.9383 1.6549e-05C12.0875 1.6549e-05 12.2306 0.0592885 12.3361 0.164793C12.4416 0.270298 12.5009 0.413394 12.5009 0.5626V6.93855C12.5009 7.17708 12.5804 8.36001 12.6696 9.67046L12.6734 9.73272C12.7709 11.1639 12.8759 12.7204 12.8759 13.1247C12.8759 13.6221 12.6783 14.0991 12.3267 14.4507C11.975 14.8024 11.498 15 11.0006 15C10.5033 15 10.0263 14.8024 9.67462 14.4507C9.32294 14.0991 9.12536 13.6221 9.12536 13.1247C9.12536 12.7392 9.22138 11.1662 9.31439 9.72371C9.3609 8.99536 9.40816 8.2895 9.44341 7.76592L9.46066 7.50113H8.93784C8.76545 7.50113 8.59475 7.46718 8.43549 7.40121C8.27623 7.33524 8.13151 7.23855 8.00962 7.11665C7.88772 6.99476 7.79103 6.85005 7.72506 6.69078C7.65909 6.53152 7.62514 6.36082 7.62514 6.18844V4.31316ZM10.6241 6.97755L10.6083 7.21309C10.5492 8.07409 10.492 8.93522 10.4366 9.79647C10.342 11.2667 10.2505 12.7864 10.2505 13.1247C10.2505 13.3237 10.3296 13.5145 10.4702 13.6551C10.6109 13.7958 10.8017 13.8748 11.0006 13.8748C11.1996 13.8748 11.3904 13.7958 11.5311 13.6551C11.6717 13.5145 11.7508 13.3237 11.7508 13.1247C11.7508 12.7647 11.6472 11.2299 11.5467 9.74622L11.5415 9.66821C11.4567 8.42377 11.3757 7.22134 11.3757 6.93855V1.17469C10.6394 1.3067 9.973 1.6934 9.49305 2.26715C9.0131 2.84089 8.75019 3.56514 8.75031 4.31316V6.18844C8.75031 6.29195 8.83432 6.37597 8.93784 6.37597H10.063C10.1402 6.37599 10.2165 6.39188 10.2872 6.42265C10.358 6.45342 10.4217 6.49841 10.4743 6.55483C10.5269 6.61126 10.5674 6.6779 10.5931 6.75062C10.6189 6.82334 10.6294 6.90059 10.6241 6.97755Z" fill="#3F4A4F"/>
</svg>
