<svg width="61" height="60" viewBox="0 0 61 60" fill="none" xmlns="http://www.w3.org/2000/svg">
<path d="M28.2773 2.98242H54.4717C56.4211 2.98242 58.0006 4.5619 58.0006 6.51131V34.6842C58.0006 36.6378 56.4211 38.2173 54.4717 38.2173H33.0573M14.9723 17.5344C16.902 17.5344 18.7527 16.7678 20.1172 15.4033C21.4817 14.0388 22.2483 12.1881 22.2483 10.2584C22.2483 8.3287 21.4817 6.47803 20.1172 5.11351C18.7527 3.749 16.902 2.98242 14.9723 2.98242C13.0426 2.98242 11.1919 3.749 9.82738 5.11351C8.46287 6.47803 7.69629 8.3287 7.69629 10.2584C7.69629 12.1881 8.46287 14.0388 9.82738 15.4033C11.1919 16.7678 13.0426 17.5344 14.9723 17.5344Z" stroke="#7B57E5" stroke-width="4.5029" stroke-linecap="round" stroke-linejoin="round"/>
<path d="M39.2919 23.8776C39.2919 21.5209 37.3799 19.6089 35.0231 19.6089H14.9721C12.0522 19.61 9.25224 20.7704 7.18758 22.835C5.12293 24.8997 3.96253 27.6997 3.96143 30.6195V40.3915H8.67908L10.2544 57.0176H19.6897L23.3142 28.1505H35.0231C37.3799 28.1505 39.2919 26.2385 39.2919 23.8776Z" stroke="#7B57E5" stroke-width="4.5029" stroke-linecap="round" stroke-linejoin="round"/>
</svg>
