<svg width="14" height="15" viewBox="0 0 14 15" fill="none" xmlns="http://www.w3.org/2000/svg">
<path id="Vector" d="M4.31719 6.78272C4.46243 6.75369 4.59019 6.66815 4.67236 6.54493C4.75454 6.4217 4.7844 6.27088 4.75537 6.12564C4.72634 5.98039 4.6408 5.85263 4.51758 5.77046C4.39435 5.68829 4.24353 5.65843 4.09828 5.68746C3.42594 5.82148 2.91814 6.29205 2.64786 6.9227C2.37982 7.54665 2.34035 8.32696 2.54958 9.16236C2.56592 9.23497 2.5966 9.30358 2.63983 9.36416C2.68307 9.42474 2.73797 9.47606 2.80132 9.51512C2.86467 9.55417 2.93519 9.58017 3.00873 9.59159C3.08227 9.603 3.15735 9.59961 3.22956 9.58159C3.30177 9.56358 3.36965 9.53131 3.42921 9.48669C3.48877 9.44206 3.53881 9.38599 3.57639 9.32175C3.61397 9.25751 3.63833 9.18641 3.64804 9.11263C3.65775 9.03884 3.65261 8.96386 3.63293 8.89209C3.46912 8.23835 3.52273 7.71567 3.67388 7.36274C3.82279 7.01577 4.05957 6.83484 4.31719 6.78272ZM2.13858 0.963157C2.10676 1.49178 2.18415 2.0213 2.36592 2.51871C2.54769 3.01612 2.82996 3.47077 3.19512 3.85432C2.48581 4.05769 1.85077 4.46255 1.36704 5.01976C0.883317 5.57697 0.571697 6.26259 0.469993 6.99343C0.224918 8.74705 0.58471 10.5318 1.49005 12.0535L1.75065 12.4928L1.78267 12.5397L2.83698 13.9589C3.06029 14.2597 3.34648 14.5082 3.67561 14.6871C4.00474 14.866 4.36892 14.971 4.74277 14.9948C5.11663 15.0186 5.49118 14.9606 5.84035 14.8249C6.18952 14.6892 6.50492 14.4791 6.76459 14.2091C6.79495 14.1775 6.83137 14.1524 6.87168 14.1352C6.91198 14.1181 6.95533 14.1092 6.99913 14.1092C7.04293 14.1092 7.08628 14.1181 7.12659 14.1352C7.16689 14.1524 7.20331 14.1775 7.23367 14.2091C7.49334 14.4791 7.80874 14.6892 8.15791 14.8249C8.50708 14.9606 8.88163 15.0186 9.25549 14.9948C9.62934 14.971 9.99352 14.866 10.3227 14.6871C10.6518 14.5082 10.938 14.2597 11.1613 13.9589L12.2156 12.539L12.2469 12.4921L12.5082 12.0528C13.4142 10.5316 13.7747 8.74706 13.5305 6.99343C13.4584 6.47671 13.281 5.98029 13.0093 5.53489C12.7376 5.0895 12.3774 4.70461 11.9509 4.40406C11.5245 4.10352 11.0409 3.89371 10.53 3.78762C10.0192 3.68153 9.49204 3.68143 8.98118 3.78731L7.56575 4.08067H7.56351C7.58585 3.49991 7.67669 2.87447 7.85464 2.33987C8.07057 1.69358 8.36988 1.30492 8.70345 1.16643C8.8402 1.10936 8.94868 1.0003 9.00502 0.863249C9.06136 0.726198 9.06096 0.572379 9.00389 0.435629C8.94682 0.29888 8.83776 0.190402 8.70071 0.13406C8.56366 0.0777173 8.40984 0.0781257 8.27309 0.135195C7.4898 0.462062 7.04455 1.23716 6.79512 1.9862L6.76087 2.09193C6.57771 1.7375 6.34087 1.41351 6.05874 1.13143C5.67262 0.744805 5.20875 0.444637 4.69787 0.25081C4.18699 0.0569834 3.64075 -0.0260777 3.09535 0.00712918C2.84645 0.0214558 2.61146 0.126637 2.43497 0.302722C2.25847 0.478807 2.15274 0.713546 2.13783 0.962413M3.24947 1.11654C3.62311 1.10576 3.99499 1.17153 4.34226 1.30982C4.68952 1.44811 5.00482 1.65599 5.26875 1.92067C5.53343 2.18461 5.74131 2.4999 5.8796 2.84717C6.01789 3.19443 6.08367 3.56632 6.07289 3.93995C5.93785 3.94292 5.80277 3.9367 5.66858 3.92134L5.20918 3.82603C4.77285 3.69504 4.37581 3.45789 4.05361 3.13581C3.78893 2.87188 3.58105 2.55658 3.44276 2.20932C3.30447 1.86206 3.23869 1.49017 3.24947 1.11654ZM4.79073 4.88034L4.94114 4.91161C5.11983 4.96224 5.30101 4.99997 5.48467 5.02479L6.20691 5.1737C6.73 5.28207 7.26975 5.28207 7.79284 5.1737L9.20901 4.88034C9.57025 4.80548 9.943 4.80556 10.3042 4.88059C10.6654 4.95562 11.0073 5.10399 11.3089 5.31653C11.6104 5.52907 11.8651 5.80124 12.0572 6.11619C12.2493 6.43115 12.3746 6.78218 12.4256 7.14756C12.6346 8.64989 12.3255 10.1786 11.5492 11.4817L11.3027 11.8964L10.2656 13.2932C10.139 13.4637 9.97676 13.6046 9.79018 13.706C9.60361 13.8074 9.39717 13.8669 9.18524 13.8804C8.97332 13.8938 8.76101 13.8609 8.5631 13.784C8.36519 13.707 8.18644 13.5878 8.0393 13.4347C7.90478 13.2947 7.74338 13.1833 7.56477 13.1073C7.38616 13.0312 7.19402 12.992 6.99988 12.992C6.80573 12.992 6.61359 13.0312 6.43498 13.1073C6.25637 13.1833 6.09497 13.2947 5.96045 13.4347C5.81331 13.5878 5.63456 13.707 5.43665 13.784C5.23874 13.8609 5.02643 13.8938 4.81451 13.8804C4.60258 13.8669 4.39614 13.8074 4.20957 13.706C4.02299 13.6046 3.86077 13.4637 3.73419 13.2932L2.697 11.8964L2.45055 11.4817C1.67447 10.1785 1.36563 8.64981 1.57494 7.14756C1.62587 6.78226 1.75123 6.4313 1.94326 6.1164C2.1353 5.80151 2.38992 5.52937 2.69136 5.31685C2.99281 5.10432 3.33466 4.95592 3.69577 4.88084C4.05688 4.80576 4.42956 4.80559 4.79073 4.88034Z" fill="#3F4A4F"/>
</svg>
