<svg width="196" height="195" viewBox="0 0 196 195" fill="none" xmlns="http://www.w3.org/2000/svg">
<g id="mdi:head-idea-outline">
<path id="Vector" d="M106.123 24.375C137.81 24.375 162.998 49.5625 162.998 81.25C162.998 104 149.998 123.5 130.498 132.437V170.625H73.623V146.25H65.498C56.5605 146.25 49.248 138.938 49.248 130V105.625H37.0605C33.8105 105.625 31.373 101.562 33.8105 99.125L49.248 78.8125C50.873 47.9375 75.248 24.375 106.123 24.375ZM106.123 8.125C68.748 8.125 37.873 35.75 33.8105 72.3125L20.8105 89.375C15.9355 95.875 15.9355 104 19.1855 110.5C22.4355 116.188 27.3105 120.25 32.998 121.062V130C32.998 145.438 43.5605 157.625 57.373 161.688V186.875H146.748V142.188C167.06 128.375 179.248 106.438 179.248 81.25C179.248 40.625 146.748 8.125 106.123 8.125ZM114.248 113.75H97.998V105.625H114.248V113.75ZM127.248 77.1875C124.81 80.4375 122.373 83.6875 118.31 86.125V97.5H93.9355V86.125C82.5605 79.625 78.498 64.1875 84.998 52.8125C91.498 41.4375 106.935 37.375 118.31 43.875C129.685 50.375 133.748 65.8125 127.248 77.1875Z" fill="#57E6B2"/>
</g>
</svg>
