<svg width="41" height="44" viewBox="0 0 41 44" fill="none" xmlns="http://www.w3.org/2000/svg">
<g id="Icon horario">
<path id="Vector" fill-rule="evenodd" clip-rule="evenodd" d="M32.2344 0C37.0755 0 41 3.92451 41 8.76563V35.2344C41 40.0755 37.0755 44 32.2344 44H8.76563C3.92451 44 0 40.0755 0 35.2344V8.76563C0 3.92451 3.92451 0 8.76563 0H32.2344ZM37.5832 14.6667H3.41646V36.8271C3.41646 38.7635 4.98626 40.3333 6.92271 40.3333H34.077C36.0134 40.3333 37.5832 38.7635 37.5832 36.8271V14.6667ZM13.6667 29.3333V34.2223H9.11108V29.3333H13.6667ZM31.8889 29.3333V34.2223H27.3333V29.3333H31.8889ZM22.7777 19.5556V24.4444H18.2223V19.5556H22.7777ZM31.8889 19.5556V24.4444H27.3333V19.5556H31.8889ZM37.5832 7.17292C37.5832 5.23647 36.0134 3.66667 34.077 3.66667H6.92276C4.98633 3.66667 3.41654 5.23644 3.41651 7.17287L3.41646 11H37.5832V7.17292Z" fill="#7B57E5"/>
</g>
</svg>
