<svg width="42" height="46" viewBox="0 0 42 46" fill="none" xmlns="http://www.w3.org/2000/svg">
<g id="Icon calndario">
<path id="Vector" d="M18.7083 23.8333H22.0417V34.6667M2.875 16.3333H39.5417M29.5417 9.66667V3M12.875 9.66667V3M6.20833 43H36.2083C37.0924 43 37.9402 42.6488 38.5654 42.0237C39.1905 41.3986 39.5417 40.5507 39.5417 39.6667V9.66667C39.5417 8.78261 39.1905 7.93477 38.5654 7.30964C37.9402 6.68452 37.0924 6.33333 36.2083 6.33333H6.20833C5.32428 6.33333 4.47643 6.68452 3.85131 7.30964C3.22619 7.93477 2.875 8.78261 2.875 9.66667V39.6667C2.875 40.5507 3.22619 41.3986 3.85131 42.0237C4.47643 42.6488 5.32428 43 6.20833 43Z" stroke="#7B57E5" stroke-width="4.18802" stroke-linecap="round" stroke-linejoin="round"/>
</g>
</svg>
