<svg width="155" height="40" viewBox="0 0 155 40" fill="none" xmlns="http://www.w3.org/2000/svg">
<path d="M32.6667 0H6.66667C2.98333 0 0 3.0339 0 6.77966V33.2203C0 36.9661 2.98333 40 6.66667 40H32.6667C36.35 40 39.3333 36.9661 39.3333 33.2203V6.77966C39.3333 3.0339 36.35 0 32.6667 0ZM31.7733 23.3424L22.9533 32.3119C22.4967 32.7763 21.76 32.7763 21.3067 32.3119L6.76667 17.5322C6.31 17.0678 6.31 16.3186 6.76667 15.8576L15.3633 7.11525C15.82 6.65085 16.5567 6.65085 17.01 7.11525L17.14 7.24746C17.5967 7.71186 17.5967 8.46101 17.14 8.92203L9.74667 16.4407L14.8933 21.6746L20.59 15.8814C21.0467 15.4169 21.7833 15.4169 22.2367 15.8814C22.6933 16.3458 22.6933 17.0949 22.2367 17.5559L16.54 23.3492L22.3733 29.2814L29.99 21.5356C30.4467 21.0712 31.1833 21.0712 31.6367 21.5356L31.7667 21.6678C32.2267 22.1288 32.2267 22.8814 31.7733 23.3424Z" fill="#7B57E5"/>
<path d="M57.5567 18.9932H50.4167V24.9729H58.2367L58.0767 25.9899H49.3367V11.7526H57.9167V12.7695H50.4167V17.9763H57.5567V18.9932Z" fill="#7B57E5"/>
<path d="M68.3967 11V23.061C68.3967 24.0373 68.3967 24.9729 68.4167 25.9898H67.4567C67.4167 25.7458 67.3967 24.7898 67.3967 24.2814C66.8967 25.522 65.7767 26.2339 64.0367 26.2339C61.4367 26.2339 59.8767 24.078 59.8767 21.0271C59.8767 17.8949 61.5767 15.5763 64.2967 15.5763C66.2967 15.5763 67.0967 16.4508 67.3967 17.1017V11H68.3967ZM60.9367 20.9864C60.9367 23.7729 62.3567 25.278 64.0767 25.278C66.7167 25.278 67.4367 23.4271 67.4367 20.661C67.4367 18.0373 66.8167 16.5322 64.2567 16.5322C62.2767 16.5322 60.9367 18.139 60.9367 20.9864Z" fill="#7B57E5"/>
<path d="M79.1533 23.0203C79.1533 24.0169 79.1733 25.6034 79.1733 25.9898H78.2133C78.1733 25.7254 78.1533 25.0542 78.1533 24.2203C77.7333 25.4203 76.7133 26.2339 74.9333 26.2339C73.4933 26.2339 71.6533 25.6644 71.6533 22.5525V15.8203H72.6333V22.3084C72.6333 23.7932 73.0933 25.2373 75.0733 25.2373C77.3133 25.2373 78.1533 23.9559 78.1533 21.0474V15.8203H79.1533V23.0203Z" fill="#7B57E5"/>
<path d="M89.7933 23C89.3133 24.7899 88.1533 26.2339 85.9133 26.2339C83.4133 26.2339 81.6333 24.3424 81.6333 20.9458C81.6333 18.1593 83.0933 15.5763 86.0333 15.5763C88.5733 15.5763 89.6133 17.4068 89.7933 18.8305H88.7733C88.4733 17.6509 87.7133 16.5322 86.0133 16.5322C83.8933 16.5322 82.6933 18.3627 82.6933 20.9051C82.6933 23.3254 83.8133 25.278 85.9133 25.278C87.3733 25.278 88.2533 24.5254 88.7733 23H89.7933Z" fill="#7B57E5"/>
<path d="M93.1167 24.4848V30.0577H92.1167V18.3221C92.1167 17.4882 92.1167 16.5932 92.0967 15.8204H93.0767C93.1167 16.2068 93.1167 16.817 93.1167 17.6509C93.7367 16.4305 94.8367 15.5763 96.6367 15.5763C98.9967 15.5763 100.637 17.5899 100.637 20.6407C100.637 24.3017 98.7167 26.2339 96.2967 26.2339C94.5367 26.2339 93.6167 25.4407 93.1167 24.4848ZM99.5733 20.6814C99.5733 18.3221 98.4533 16.5526 96.4733 16.5526C94.0533 16.5526 93.0533 18.0983 93.0533 20.8644C93.0533 23.5899 93.8333 25.278 96.3333 25.278C98.4167 25.278 99.5733 23.4882 99.5733 20.6814Z" fill="#7B57E5"/>
<path d="M103.137 25.9898V11H104.137V25.9898H103.137Z" fill="#7B57E5"/>
<path d="M114.273 24.0576C114.273 24.9526 114.353 25.6644 114.413 25.9899H113.453C113.373 25.7458 113.313 25.2983 113.273 24.4238C112.933 25.1763 112.053 26.2339 109.993 26.2339C107.673 26.2339 106.673 24.7085 106.673 23.1831C106.673 20.9458 108.373 19.9288 111.373 19.9288C112.213 19.9288 112.873 19.9288 113.273 19.9288V18.8915C113.273 17.8746 112.973 16.5119 110.693 16.5119C108.673 16.5119 108.373 17.5899 108.153 18.4237H107.153C107.273 17.3051 107.953 15.5763 110.713 15.5763C112.993 15.5763 114.273 16.5526 114.273 18.7899V24.0576ZM113.293 20.8034C112.913 20.8034 111.993 20.8034 111.333 20.8034C109.113 20.8034 107.733 21.3932 107.733 23.1424C107.733 24.4238 108.633 25.2983 110.033 25.2983C112.893 25.2983 113.293 23.3661 113.293 21.1695V20.8034Z" fill="#7B57E5"/>
<path d="M117.573 18.3831C117.573 17.4882 117.573 16.6339 117.553 15.8204H118.533C118.573 16.1458 118.593 17.4678 118.573 17.7526C119.013 16.7153 119.833 15.5763 121.893 15.5763C123.673 15.5763 125.253 16.5932 125.253 19.4V25.9899H124.253V19.5627C124.253 17.7526 123.513 16.5729 121.773 16.5729C119.393 16.5729 118.573 18.5865 118.573 20.8034V25.9899H117.573V18.3831Z" fill="#7B57E5"/>
<path d="M128.533 18.3831C128.533 17.4882 128.533 16.6339 128.513 15.8204H129.493C129.533 16.1458 129.553 17.4678 129.533 17.7526C129.973 16.7153 130.793 15.5763 132.853 15.5763C134.633 15.5763 136.213 16.5932 136.213 19.4V25.9899H135.213V19.5627C135.213 17.7526 134.473 16.5729 132.733 16.5729C130.353 16.5729 129.533 18.5865 129.533 20.8034V25.9899H128.533V18.3831Z" fill="#7B57E5"/>
<path d="M139.713 21.0271C139.733 23.6509 141.033 25.278 142.953 25.278C144.833 25.278 145.473 24.2 145.833 23.3661H146.853C146.433 24.7085 145.373 26.2339 142.913 26.2339C139.873 26.2339 138.693 23.5695 138.693 20.9865C138.693 18.078 140.113 15.5763 143.033 15.5763C146.113 15.5763 147.093 18.2814 147.093 20.1932C147.093 20.478 147.093 20.7627 147.073 21.0271H139.713ZM146.053 20.1322C146.033 18.1187 144.953 16.5322 142.993 16.5322C140.933 16.5322 139.993 17.9966 139.773 20.1322H146.053Z" fill="#7B57E5"/>
<path d="M149.533 18.5865C149.533 16.878 149.513 16.1458 149.513 15.8204H150.493C150.513 16.1458 150.533 16.7966 150.533 18.0983C151.113 16.5729 152.393 15.6576 154.013 15.5763V16.6746C151.933 16.817 150.533 18.2814 150.533 20.7017V25.9899H149.533V18.5865Z" fill="#7B57E5"/>
</svg>
