<svg width="65" height="77" viewBox="0 0 65 77" fill="none" xmlns="http://www.w3.org/2000/svg">
<g id="Group">
<path id="Vector" d="M3.77295 65.6887V11.4261C3.77295 9.37021 4.5296 7.39851 5.87645 5.94477C7.22331 4.49102 9.05003 3.67432 10.9548 3.67432H59.0729C59.6444 3.67432 60.1924 3.91933 60.5964 4.35545C61.0005 4.79158 61.2275 5.38309 61.2275 5.99986V56.8284M10.9548 57.9369H61.2275M10.9548 73.4406H61.2275" stroke="#7B57E5" stroke-width="6.54058" stroke-linecap="round"/>
<path id="Vector_2" d="M10.9548 73.4406C9.05003 73.4406 7.22331 72.6239 5.87645 71.1702C4.5296 69.7164 3.77295 67.7447 3.77295 65.6888C3.77295 63.6329 4.5296 61.6612 5.87645 60.2075C7.22331 58.7537 9.05003 57.937 10.9548 57.937" stroke="#7B57E5" stroke-width="6.54058" stroke-linecap="round" stroke-linejoin="round"/>
<path id="Vector_3" d="M21.7275 19.1787H43.273" stroke="#7B57E5" stroke-width="6.54058" stroke-linecap="round"/>
</g>
</svg>
