<svg width="66" height="66" viewBox="0 0 66 66" fill="none" xmlns="http://www.w3.org/2000/svg">
<g id="Vector">
<path d="M14.1663 51.6784L29.7957 51.6252L63.909 17.8377C65.2478 16.499 65.9845 14.7211 65.9845 12.8298C65.9845 10.9386 65.2478 9.16066 63.909 7.82191L58.292 2.20482C55.6145 -0.472675 50.943 -0.458509 48.2868 2.1942L14.1663 35.9888V51.6784ZM53.284 7.21274L58.9118 12.8192L53.2557 18.4221L47.6386 12.8086L53.284 7.21274ZM21.2497 38.9425L42.6059 17.7882L48.223 23.4052L26.8703 44.5525L21.2497 44.5702V38.9425Z" fill="#7B57E5"/>
<path d="M7.08333 65.7993H56.6667C60.5731 65.7993 63.75 62.6224 63.75 58.716V28.0168L56.6667 35.1002V58.716H18.2679C18.1758 58.716 18.0802 58.7514 17.9881 58.7514C17.8713 58.7514 17.7544 58.7195 17.634 58.716H7.08333V9.13265H31.3331L38.4165 2.04932H7.08333C3.17687 2.04932 0 5.22619 0 9.13265V58.716C0 62.6224 3.17687 65.7993 7.08333 65.7993Z" fill="#7B57E5"/>
</g>
</svg>
