<svg width="85" height="86" viewBox="0 0 85 86" fill="none" xmlns="http://www.w3.org/2000/svg">
<g id="hugeicons:time-management">
<path id="Vector" d="M17.7085 60.7085C12.697 60.7085 10.1931 60.7085 8.64183 62.0047C7.0835 63.301 7.0835 65.3906 7.0835 69.5627C7.0835 73.7347 7.08704 75.8243 8.64183 77.1206C10.1966 78.4168 12.697 78.4168 17.7085 78.4168C22.72 78.4168 25.2239 78.4168 26.7752 77.1206C28.3335 75.8243 28.3335 73.7347 28.3335 69.5627C28.3335 65.3906 28.33 63.301 26.7752 62.0047C25.2204 60.7085 22.72 60.7085 17.7085 60.7085ZM17.7085 60.7085C17.7085 51.9181 20.3435 50.0835 32.966 50.0835H52.0343C64.6568 50.0835 67.2918 51.9181 67.2918 60.7085M67.2918 60.7085C62.2804 60.7085 59.7764 60.7085 58.2252 62.0047C56.6668 63.301 56.6668 65.3906 56.6668 69.5627C56.6668 73.7347 56.6704 75.8243 58.2252 77.1206C59.78 78.4168 62.2804 78.4168 67.2918 78.4168C72.3033 78.4168 74.8072 78.4168 76.3585 77.1206C77.9168 75.8243 77.9168 73.7347 77.9168 69.5627C77.9168 65.3906 77.9133 63.301 76.3585 62.0047C74.8037 60.7085 72.3033 60.7085 67.2918 60.7085ZM42.5002 23.521L46.0418 18.2085M58.4377 23.521C58.4377 27.7479 56.7585 31.8016 53.7697 34.7905C50.7808 37.7794 46.727 39.4585 42.5002 39.4585C38.2733 39.4585 34.2195 37.7794 31.2306 34.7905C28.2418 31.8016 26.5627 27.7479 26.5627 23.521C26.5627 19.2941 28.2418 15.2403 31.2306 12.2515C34.2195 9.26262 38.2733 7.5835 42.5002 7.5835C46.727 7.5835 50.7808 9.26262 53.7697 12.2515C56.7585 15.2403 58.4377 19.2941 58.4377 23.521Z" stroke="#7B57E5" stroke-width="6" stroke-linecap="round" stroke-linejoin="round"/>
</g>
</svg>
