<svg width="81" height="70" viewBox="0 0 81 70" fill="none" xmlns="http://www.w3.org/2000/svg">
<path id="Vector" d="M76.9883 65.9781C76.9883 57.5047 70.2177 45.4312 60.7712 42.7594M52.6627 65.9781C52.6627 55.2303 41.773 41.6526 28.3372 41.6526C14.9014 41.6526 4.01172 55.2303 4.01172 65.9781M52.6627 27.4627C55.8885 27.4627 58.9822 26.1813 61.2631 23.9003C63.5441 21.6194 64.8255 18.5257 64.8255 15.3C64.8255 12.0742 63.5441 8.98056 61.2631 6.6996C58.9822 4.41864 55.8885 3.13721 52.6627 3.13721M40.5 15.3C40.5 18.5257 39.2186 21.6194 36.9376 23.9003C34.6566 26.1813 31.563 27.4627 28.3372 27.4627C25.1115 27.4627 22.0178 26.1813 19.7369 23.9003C17.4559 21.6194 16.1745 18.5257 16.1745 15.3C16.1745 12.0742 17.4559 8.98056 19.7369 6.6996C22.0178 4.41864 25.1115 3.13721 28.3372 3.13721C31.563 3.13721 34.6566 4.41864 36.9376 6.6996C39.2186 8.98056 40.5 12.0742 40.5 15.3Z" stroke="#7B57E5" stroke-width="6.08138" stroke-linecap="round" stroke-linejoin="round"/>
</svg>
