<svg width="40" height="40" viewBox="0 0 40 40" fill="none" xmlns="http://www.w3.org/2000/svg">
<path d="M32.6667 0H6.66667C2.98333 0 0 3.0339 0 6.77966V33.2203C0 36.9661 2.98333 40 6.66667 40H32.6667C36.35 40 39.3333 36.9661 39.3333 33.2203V6.77966C39.3333 3.0339 36.35 0 32.6667 0ZM31.7733 23.3424L22.9533 32.3119C22.4967 32.7763 21.76 32.7763 21.3067 32.3119L6.76667 17.5322C6.31 17.0678 6.31 16.3186 6.76667 15.8576L15.3633 7.11525C15.82 6.65085 16.5567 6.65085 17.01 7.11525L17.14 7.24746C17.5967 7.71186 17.5967 8.46101 17.14 8.92203L9.74667 16.4407L14.8933 21.6746L20.59 15.8814C21.0467 15.4169 21.7833 15.4169 22.2367 15.8814C22.6933 16.3458 22.6933 17.0949 22.2367 17.5559L16.54 23.3492L22.3733 29.2814L29.99 21.5356C30.4467 21.0712 31.1833 21.0712 31.6367 21.5356L31.7667 21.6678C32.2267 22.1288 32.2267 22.8814 31.7733 23.3424Z" fill="#7B57E5"/>
</svg>
